<svg xmlns="http://www.w3.org/2000/svg" viewBox="0 0 1024 1024"><path fill="gray" d="M481.8 193.7c.6.2 1.8.2 2.5 0 .6-.3.1-.5-1.3-.5s-1.9.2-1.2.5m41 0c.7.3 1.6.2 1.9-.1.4-.3-.2-.6-1.3-.5-1.1 0-1.4.3-.6.6m-59 2c.7.3 1.6.2 1.9-.1.4-.3-.2-.6-1.3-.5-1.1 0-1.4.3-.6.6m80 0c.7.3 1.6.2 1.9-.1.4-.3-.2-.6-1.3-.5-1.1 0-1.4.3-.6.6m-15 49c.6.2 1.8.2 2.5 0 .6-.3.1-.5-1.3-.5s-1.9.2-1.2.5m-211.9 14c-1.3 1.6-1.2 1.7.4.4.9-.7 1.7-1.5 1.7-1.7 0-.8-.8-.3-2.1 1.3m373.1-1.3c0 .2.8 1 1.8 1.7 1.5 1.3 1.6 1.2.3-.4s-2.1-2.1-2.1-1.3m-383.6 9.8-1.9 2.3 2.3-1.9c2.1-1.8 2.7-2.6 1.9-2.6-.2 0-1.2 1-2.3 2.2m394.6-.8c0 .2.8 1 1.8 1.7 1.5 1.3 1.6 1.2.3-.4s-2.1-2.1-2.1-1.3m-90 1c0 .2.7.7 1.6 1 .8.3 1.2.2.9-.4-.6-1-2.5-1.4-2.5-.6m-312.1 6.3c-1.3 1.6-1.2 1.7.4.4s2.1-2.1 1.3-2.1c-.2 0-1 .8-1.7 1.7m-8.4 8.5-6 6.3 6.3-6c5.8-5.5 6.7-6.5 5.9-6.5-.1 0-2.9 2.8-6.2 6.2m429.5 2.3c1.9 1.9 3.6 3.5 3.9 3.5s-1-1.6-2.9-3.5-3.6-3.5-3.9-3.5 1 1.6 2.9 3.5m10.5 11.5c1 1.1 2 2 2.3 2s-.3-.9-1.3-2-2-2-2.3-2 .3.9 1.3 2m-453.6.7c-1.3 1.6-1.2 1.7.4.4.9-.7 1.7-1.5 1.7-1.7 0-.8-.8-.3-2.1 1.3m380.1-1.3c0 .2.8 1 1.8 1.7 1.5 1.3 1.6 1.2.3-.4s-2.1-2.1-2.1-1.3m-309.6 5.8-1.9 2.3 2.3-1.9c2.1-1.8 2.7-2.6 1.9-2.6-.2 0-1.2 1-2.3 2.2m317.1.8c1 1.1 2 2 2.3 2s-.3-.9-1.3-2-2-2-2.3-2 .3.9 1.3 2m69.5-1.6c0 .2.8 1 1.8 1.7 1.5 1.3 1.6 1.2.3-.4s-2.1-2.1-2.1-1.3m-62 8.1c1.9 1.9 3.6 3.5 3.9 3.5s-1-1.6-2.9-3.5-3.6-3.5-3.9-3.5 1 1.6 2.9 3.5m-342.1 8.2-2.4 2.8 2.8-2.4c2.5-2.3 3.2-3.1 2.4-3.1-.2 0-1.4 1.2-2.8 2.7m351.1.8c1.9 1.9 3.6 3.5 3.9 3.5s-1-1.6-2.9-3.5-3.6-3.5-3.9-3.5 1 1.6 2.9 3.5m-356.6 4.7-1.9 2.3 2.3-1.9c2.1-1.8 2.7-2.6 1.9-2.6-.2 0-1.2 1-2.3 2.2m-7 8-1.9 2.3 2.3-1.9c2.1-1.8 2.7-2.6 1.9-2.6-.2 0-1.2 1-2.3 2.2m375.6.3c1.3 1.4 2.6 2.5 2.8 2.5.3 0-.5-1.1-1.8-2.5s-2.6-2.5-2.8-2.5c-.3 0 .5 1.1 1.8 2.5m-384.1 10.2c-1.3 1.6-1.2 1.7.4.4s2.1-2.1 1.3-2.1c-.2 0-1 .8-1.7 1.7m320.9 87c1.8.2 4.5.2 6 0s0-.4-3.3-.4-4.5.2-2.7.4m-288.5 4.9-2.8 2.5 3.3-2.2c1.7-1.3 3.2-2.4 3.2-2.6 0-.8-1.1-.1-3.7 2.3m-75.2 0c0 1.1.3 1.4.6.6.3-.7.2-1.6-.1-1.9-.3-.4-.6.2-.5 1.3m317.3 12.6-2.9 3.3 3.3-2.9c3-2.8 3.7-3.6 2.9-3.6-.2 0-1.6 1.5-3.3 3.2m-152.9.8c1 1.1 2 2 2.3 2s-.3-.9-1.3-2-2-2-2.3-2 .3.9 1.3 2m-168.3 7c0 1.4.2 1.9.5 1.2.2-.6.2-1.8 0-2.5-.3-.6-.5-.1-.5 1.3m371.6 1.7c.7.3 1.6.2 1.9-.1.4-.3-.2-.6-1.3-.5-1.1 0-1.4.3-.6.6M261.2 462c0 1.4.2 1.9.5 1.2.2-.6.2-1.8 0-2.5-.3-.6-.5-.1-.5 1.3m398 2.6c1 1 2 1.6 2.2 1.3.3-.3-.5-1.1-1.7-1.8-2.1-1.3-2.1-1.2-.5.5m-248 7.4c0 1.4.2 1.9.5 1.2.2-.6.2-1.8 0-2.5-.3-.6-.5-.1-.5 1.3m-150.9 4.5c0 2.2.2 3 .4 1.7.2-1.2.2-3 0-4-.3-.9-.5.1-.4 2.3m145.1 10.7-1.9 2.3 2.3-1.9c2.1-1.8 2.7-2.6 1.9-2.6-.2 0-1.2 1-2.3 2.2m-34.6 5.5c1.2.2 3 .2 4 0 .9-.3-.1-.5-2.3-.4-2.2 0-3 .2-1.7.4m8.5 0c.9.2 2.5.2 3.5 0 .9-.3.1-.5-1.8-.5s-2.7.2-1.7.5m8 0c.9.2 2.3.2 3 0 .6-.3-.1-.5-1.8-.5-1.6 0-2.2.2-1.2.5m43.6 7c-1.3 1.6-1.2 1.7.4.4.9-.7 1.7-1.5 1.7-1.7 0-.8-.8-.3-2.1 1.3m-223.8 3.9c0 1.1.3 1.4.6.6.3-.7.2-1.6-.1-1.9-.3-.4-.6.2-.5 1.3m54 10c0 1.1.3 1.4.6.6.3-.7.2-1.6-.1-1.9-.3-.4-.6.2-.5 1.3M604 524.5c1.9 1.9 3.6 3.5 3.9 3.5s-1-1.6-2.9-3.5-3.6-3.5-3.9-3.5 1 1.6 2.9 3.5m-394.9 2.1c0 1.1.3 1.4.6.6.3-.7.2-1.6-.1-1.9-.3-.4-.6.2-.5 1.3m277.1 3.9c0 1.6.2 2.2.5 1.2.2-.9.2-2.3 0-3-.3-.6-.5.1-.5 1.8m147.6 5.2c.6.2 1.8.2 2.5 0 .6-.3.1-.5-1.3-.5s-1.9.2-1.2.5m-55.8 3.6c0 .2 1.5 1.6 3.3 3.3l3.2 2.9-2.9-3.3c-2.8-3-3.6-3.7-3.6-2.9m-311.9 5.3c0 1.1.3 1.4.6.6.3-.7.2-1.6-.1-1.9-.3-.4-.6.2-.5 1.3m323.9 5.8c0 .2.8 1 1.8 1.7 1.5 1.3 1.6 1.2.3-.4s-2.1-2.1-2.1-1.3m-242.7 11.3c.9.2 2.3.2 3 0 .6-.3-.1-.5-1.8-.5-1.6 0-2.2.2-1.2.5m118 0c.9.2 2.5.2 3.5 0 .9-.3.1-.5-1.8-.5s-2.7.2-1.7.5m162.5 2c.6.2 1.8.2 2.5 0 .6-.3.1-.5-1.3-.5s-1.9.2-1.2.5m8 0c.7.3 1.6.2 1.9-.1.4-.3-.2-.6-1.3-.5-1.1 0-1.4.3-.6.6M763 627.4c0 .2.8 1 1.8 1.7 1.5 1.3 1.6 1.2.3-.4s-2.1-2.1-2.1-1.3m-56.1 9.3c-1.3 1.6-1.2 1.7.4.4s2.1-2.1 1.3-2.1c-.2 0-1 .8-1.7 1.7M254 652c.6 1.1 1.3 2 1.6 2 .2 0 0-.9-.6-2s-1.3-2-1.6-2c-.2 0 0 .9.6 2m69.5 2c1 1.1 2 2 2.3 2s-.3-.9-1.3-2-2-2-2.3-2 .3.9 1.3 2m359.4 8.7-3.4 3.8 3.8-3.4c3.4-3.3 4.2-4.1 3.4-4.1-.2 0-1.9 1.7-3.8 3.7M340 670.4c0 .2.8 1 1.8 1.7 1.5 1.3 1.6 1.2.3-.4s-2.1-2.1-2.1-1.3m-72 1c0 .2.8 1 1.8 1.7 1.5 1.3 1.6 1.2.3-.4s-2.1-2.1-2.1-1.3m470.4 10.8-1.9 2.3 2.3-1.9c2.1-1.8 2.7-2.6 1.9-2.6-.2 0-1.2 1-2.3 2.2M279 684.5c1.9 1.9 3.6 3.5 3.9 3.5s-1-1.6-2.9-3.5-3.6-3.5-3.9-3.5 1 1.6 2.9 3.5m451.4 6.7-1.9 2.3 2.3-1.9c1.2-1.1 2.2-2.1 2.2-2.3 0-.8-.8-.2-2.6 1.9M287.5 694c2.1 2.2 4.1 4 4.4 4s-1.3-1.8-3.4-4-4.1-4-4.4-4 1.3 1.8 3.4 4m9 9c2.1 2.2 4.1 4 4.4 4s-1.3-1.8-3.4-4-4.1-4-4.4-4 1.3 1.8 3.4 4m420.4 1.7-2.4 2.8 2.8-2.4c1.5-1.4 2.7-2.6 2.7-2.8 0-.8-.8-.1-3.1 2.4M305 710.3c0 .2 1.5 1.6 3.3 3.3l3.2 2.9-2.9-3.3c-2.8-3-3.6-3.7-3.6-2.9m401.9 3.4-2.4 2.8 2.8-2.4c1.5-1.4 2.7-2.6 2.7-2.8 0-.8-.8-.1-3.1 2.4M314 718.4c0 .2.8 1 1.8 1.7 1.5 1.3 1.6 1.2.3-.4s-2.1-2.1-2.1-1.3m385.9 1.3c-1.3 1.6-1.2 1.7.4.4s2.1-2.1 1.3-2.1c-.2 0-1 .8-1.7 1.7M319.5 723c1 1.1 2 2 2.3 2s-.3-.9-1.3-2-2-2-2.3-2 .3.9 1.3 2m375.9.2-1.9 2.3 2.3-1.9c1.2-1.1 2.2-2.1 2.2-2.3 0-.8-.8-.2-2.6 1.9M323 725.4c0 .2.8 1 1.8 1.7 1.5 1.3 1.6 1.2.3-.4s-2.1-2.1-2.1-1.3m139.8 5.3c.7.3 1.6.2 1.9-.1.4-.3-.2-.6-1.3-.5-1.1 0-1.4.3-.6.6m6 1c.6.2 1.8.2 2.5 0 .6-.3.1-.5-1.3-.5s-1.9.2-1.2.5m74 0c.6.2 1.8.2 2.5 0 .6-.3.1-.5-1.3-.5s-1.9.2-1.2.5m-66.5 1c.9.2 2.3.2 3 0 .6-.3-.1-.5-1.8-.5-1.6 0-2.2.2-1.2.5m16 1c.9.2 2.3.2 3 0 .6-.3-.1-.5-1.8-.5-1.6 0-2.2.2-1.2.5m-35.5 52c.6.2 1.8.2 2.5 0 .6-.3.1-.5-1.3-.5s-1.9.2-1.2.5m93 1c.7.3 1.6.2 1.9-.1.4-.3-.2-.6-1.3-.5-1.1 0-1.4.3-.6.6m-8 1c.6.2 1.8.2 2.5 0 .6-.3.1-.5-1.3-.5s-1.9.2-1.2.5m-51 2c1.2.2 3 .2 4 0 .9-.3-.1-.5-2.3-.4-2.2 0-3 .2-1.7.4m31.5 0c.9.2 2.3.2 3 0 .6-.3-.1-.5-1.8-.5-1.6 0-2.2.2-1.2.5"/><path fill="#80aaaa" d="M393.5 271c-.3.6.1.7.9.4 1.8-.7 2.1-1.4.7-1.4-.6 0-1.3.4-1.6 1"/><path fill="#aaa" d="M490.3 193.7c.9.2 2.5.2 3.5 0 .9-.3.1-.5-1.8-.5s-2.7.2-1.7.5m26.5 0c1.2.2 3 .2 4 0 .9-.3-.1-.5-2.3-.4-2.2 0-3 .2-1.7.4m10 0c.7.3 1.6.2 1.9-.1.4-.3-.2-.6-1.3-.5-1.1 0-1.4.3-.6.6m-55 1c1.2.2 3 .2 4 0 .9-.3-.1-.5-2.3-.4-2.2 0-3 .2-1.7.4m-15 2c.6.2 1.8.2 2.5 0 .6-.3.1-.5-1.3-.5s-1.9.2-1.2.5m-5 1c.7.3 1.6.2 1.9-.1.4-.3-.2-.6-1.3-.5-1.1 0-1.4.3-.6.6m-5 1c.7.3 1.6.2 1.9-.1.4-.3-.2-.6-1.3-.5-1.1 0-1.4.3-.6.6m120 1c.7.3 1.6.2 1.9-.1.4-.3-.2-.6-1.3-.5-1.1 0-1.4.3-.6.6m30.2 7.6c0 .3 1.5 1 3.2 1.6 1.8.6 2.8.7 2.3.2-1.2-1-5.5-2.5-5.5-1.8M404.5 210c-.3.6.1.7.9.4 1.8-.7 2.1-1.4.7-1.4-.6 0-1.3.4-1.6 1m-17.5 6.5c-1.4.8-2 1.4-1.4 1.5.5 0 1.9-.7 3-1.5 2.4-1.8 1.6-1.9-1.6 0m233 0c1.4.8 3 1.4 3.5 1.4.6 0-.1-.6-1.5-1.4s-2.9-1.4-3.5-1.4c-.5 0 .1.6 1.5 1.4m8 2.9c0 .3.9 1 2 1.6s2 .8 2 .6c0-.3-.9-1-2-1.6s-2-.8-2-.6m15.1 8c1 .9 6.9 3.6 6.9 3.2 0-.6-5.5-3.6-6.6-3.6-.4 0-.5.2-.3.4M361 229c-.9.6-1 1-.3 1 .6 0 1.5-.5 1.8-1 .8-1.2.4-1.2-1.5 0m290 2.4c0 .3.9 1 2 1.6s2 .8 2 .6c0-.3-.9-1-2-1.6s-2-.8-2-.6m-158.7 12.3c1.5.2 3.7.2 5 0 1.2-.2 0-.4-2.8-.4-2.7 0-3.8.2-2.2.4m12.5 0c2.3.2 5.9.2 8 0 2-.2.1-.4-4.3-.4s-6.1.2-3.7.4m13 0c.7.3 1.6.2 1.9-.1.4-.3-.2-.6-1.3-.5-1.1 0-1.4.3-.6.6m33 4c.7.3 1.6.2 1.9-.1.4-.3-.2-.6-1.3-.5-1.1 0-1.4.3-.6.6m-228.9 7c-1.3 1.6-1.2 1.7.4.4s2.1-2.1 1.3-2.1c-.2 0-1 .8-1.7 1.7m364.1-.3c0 .2.8 1 1.8 1.7 1.5 1.3 1.6 1.2.3-.4s-2.1-2.1-2.1-1.3m-383.4 16.1c-1.1.8-1.5 1.5-.9 1.5s1.6-.7 2.3-1.5c1.6-1.9 1.1-1.9-1.4 0m314.1-.4c.7.7 1.5 1 1.8.7s-.2-.9-1.2-1.2c-1.4-.6-1.5-.5-.6.5m87.3-.7c0 .2.8 1 1.8 1.7 1.5 1.3 1.6 1.2.3-.4s-2.1-2.1-2.1-1.3m5 4c0 .2.8 1 1.8 1.7 1.5 1.3 1.6 1.2.3-.4s-2.1-2.1-2.1-1.3m17 18c0 .2.8 1 1.8 1.7 1.5 1.3 1.6 1.2.3-.4s-2.1-2.1-2.1-1.3m-66 6c0 .2.8 1 1.8 1.7 1.5 1.3 1.6 1.2.3-.4s-2.1-2.1-2.1-1.3m-324.1 13.3-2.4 2.8 2.8-2.4c2.5-2.3 3.2-3.1 2.4-3.1-.2 0-1.4 1.2-2.8 2.7M321 325.5c-.7.9-1.1 1.7-.9 2 .3.2 1-.5 1.7-1.5 1.4-2.4 1-2.6-.8-.5m368.1.2c.7 1.2 1.5 2 1.8 1.7.3-.2-.3-1.2-1.3-2.2-1.7-1.6-1.8-1.6-.5.5M761 341c1.1 2.2 2.3 4 2.5 4 .3 0-.4-1.8-1.5-4s-2.3-4-2.5-4c-.3 0 .4 1.8 1.5 4m-58 2.4c0 .2.8 1 1.8 1.7 1.5 1.3 1.6 1.2.3-.4s-2.1-2.1-2.1-1.3m62.1 8.2c0 1.1.3 1.4.6.6.3-.7.2-1.6-.1-1.9-.3-.4-.6.2-.5 1.3M292 366c-.6 1.1-.8 2-.6 2 .3 0 1-.9 1.6-2s.8-2 .6-2c-.3 0-1 .9-1.6 2m429.5 4c1 1.1 2 2 2.3 2s-.3-.9-1.3-2-2-2-2.3-2 .3.9 1.3 2m21.5 1c-.8.5-1 1-.5 1 .6 0 1.7-.5 2.5-1s1.1-1 .5-1c-.5 0-1.7.5-2.5 1m-10.2 3.7c.6.2 1.8.2 2.5 0 .6-.3.1-.5-1.3-.5s-1.9.2-1.2.5m-448.2 5c-.6 1.4-.5 1.5.5.6.7-.7 1-1.5.7-1.8s-.9.2-1.2 1.2m-58.1 1.4c-.4.6-.5 1.2-.2 1.5.2.3.7-.2 1-1.1.7-1.7.1-2-.8-.4m-11.4 37.5c0 1.1.3 1.4.6.6.3-.7.2-1.6-.1-1.9-.3-.4-.6.2-.5 1.3m409.7 9.1c.7.3 1.6.2 1.9-.1.4-.3-.2-.6-1.3-.5-1.1 0-1.4.3-.6.6m-8 1c.7.3 1.6.2 1.9-.1.4-.3-.2-.6-1.3-.5-1.1 0-1.4.3-.6.6m-257.6 1c5.9.2 15.8.2 22 0 6.2-.1 1.4-.3-10.7-.3s-17.2.2-11.3.3m126.5 0c10.5.2 28.1.2 39 0 10.9-.1 2.3-.2-19.2-.2-21.4 0-30.4.1-19.8.2m61.3.7c0 .2.7.7 1.6 1 .8.3 1.2.2.9-.4-.6-1-2.5-1.4-2.5-.6m103 0c0 .2.7.7 1.6 1 .8.3 1.2.2.9-.4-.6-1-2.5-1.4-2.5-.6m-437.9 2.2c0 1.1.3 1.4.6.6.3-.7.2-1.6-.1-1.9-.3-.4-.6.2-.5 1.3M338.5 495c0 32.2.1 45.3.2 29.2.2-16 .2-42.4 0-58.5-.1-16-.2-2.9-.2 29.3m119-20c0 21.2.1 29.8.2 19.2.2-10.5.2-27.9 0-38.5-.1-10.5-.2-1.9-.2 19.3m-31-33c1 1.1 2 2 2.3 2s-.3-.9-1.3-2-2-2-2.3-2 .3.9 1.3 2m127.7 1.5c0 1.6.2 2.2.5 1.2.2-.9.2-2.3 0-3-.3-.6-.5.1-.5 1.8m119-.9c1 1 2 1.6 2.2 1.3.3-.3-.5-1.1-1.7-1.8-2.1-1.3-2.1-1.2-.5.5m7.9 8c0 1.1.3 1.4.6.6.3-.7.2-1.6-.1-1.9-.3-.4-.6.2-.5 1.3m-3.2 5c-1.3 1.4-1.7 2.3-.9 1.9 1.3-.5 4.6-4.5 3.7-4.5-.2 0-1.4 1.1-2.8 2.6m-53.1-.9c.7.3 1.6.2 1.9-.1.4-.3-.2-.6-1.3-.5-1.1 0-1.4.3-.6.6m4.5 0c.9.2 2.3.2 3 0 .6-.3-.1-.5-1.8-.5-1.6 0-2.2.2-1.2.5m-257 1c2.6.2 6.7.2 9 0s.2-.3-4.8-.3c-4.9 0-6.8.1-4.2.3m267.5 0c.7.3 1.6.2 1.9-.1.4-.3-.2-.6-1.3-.5-1.1 0-1.4.3-.6.6m-138 1c8.3.2 22.1.2 30.5 0 8.3-.1 1.5-.3-15.3-.3s-23.6.2-15.2.3m142 0c.7.3 1.6.2 1.9-.1.4-.3-.2-.6-1.3-.5-1.1 0-1.4.3-.6.6m3.2.7c0 .2.7.7 1.6 1 .8.3 1.2.2.9-.4-.6-1-2.5-1.4-2.5-.6m-37.1 2.7-2.4 2 3-1.7c3.9-2.4 4-2.4 2.8-2.4-.6 0-2.1.9-3.4 2.1M208.2 462c0 1.4.2 1.9.5 1.2.2-.6.2-1.8 0-2.5-.3-.6-.5-.1-.5 1.3m277.9.6c0 1.1.3 1.4.6.6.3-.7.2-1.6-.1-1.9-.3-.4-.6.2-.5 1.3m-79.1-.2c0 .2.8 1 1.8 1.7 1.5 1.3 1.6 1.2.3-.4s-2.1-2.1-2.1-1.3m196.4 2.8-2.9 3.3 3.3-2.9c3-2.8 3.7-3.6 2.9-3.6-.2 0-1.6 1.5-3.3 3.2m-117.1 7.3c0 4.4.2 6.1.4 3.7.2-2.3.2-5.9 0-8-.2-2-.4-.1-.4 4.3m176.5-5.8c.6.2 1.8.2 2.5 0 .6-.3.1-.5-1.3-.5s-1.9.2-1.2.5m-402.7 2.9c0 1.1.3 1.4.6.6.3-.7.2-1.6-.1-1.9-.3-.4-.6.2-.5 1.3M207.4 486c0 8.5.2 12 .3 7.7.2-4.2.2-11.2 0-15.5-.1-4.2-.3-.7-.3 7.8m203.7-9.4c0 1.1.3 1.4.6.6.3-.7.2-1.6-.1-1.9-.3-.4-.6.2-.5 1.3m153.4 1.4c-.4 1.7-.5 3.4-.2 3.6.2.3.7-1 1.1-2.7.3-1.8.4-3.4.2-3.6-.2-.3-.7 1-1.1 2.7m-154.4 1.7c-.1.6-.4 2-.7 3-.5 1.7-.5 1.7.6 0 .6-1 .9-2.3.6-3-.3-.9-.5-.9-.5 0m28.8 2.1c-.3 2-.2 2.9.4 2.3.5-.5.7-1.9.5-3.2-.3-2-.5-1.9-.9.9m48 .5c.4.4 11.7.6 25.2.5l24.4-.3-25.2-.5c-13.9-.3-24.9-.2-24.4.3m-226.6 6.2c0 3.3.2 4.5.4 2.7s.2-4.5 0-6-.4 0-.4 3.3m281.4-3.5c1.1 1.4 2.3 3.4 2.6 4.5.5 1.9.5 1.9.6-.1 0-1.1-1.1-3.1-2.6-4.5l-2.8-2.4zm21.7 10.5c0 5.5.1 7.6.3 4.7s.2-7.4 0-10-.3-.2-.3 5.3m28.9-1c0 3.8.2 5.3.4 3.2.2-2 .2-5.2 0-7-.2-1.7-.4-.1-.4 3.8m-48.1 4.5c0 1.4.2 1.9.5 1.2.2-.6.2-1.8 0-2.5-.3-.6-.5-.1-.5 1.3m-116.8 4.2-1.9 2.3 2.3-1.9c2.1-1.8 2.7-2.6 1.9-2.6-.2 0-1.2 1-2.3 2.2m-220.3 3.4c0 1.1.3 1.4.6.6.3-.7.2-1.6-.1-1.9-.3-.4-.6.2-.5 1.3m53.1.4c0 1.4.2 1.9.5 1.2.2-.6.2-1.8 0-2.5-.3-.6-.5-.1-.5 1.3m243 .7c5.9.2 15.8.2 22 0 6.2-.1 1.4-.3-10.7-.3s-17.2.2-11.3.3m60.8.9c0 1 .5 2.6 1 3.4.8 1.1.9.7.4-1.5-.8-3.7-1.4-4.5-1.4-1.9M418 510c-.8.5-1 1-.5 1 .6 0 1.7-.5 2.5-1s1.1-1 .5-1c-.5 0-1.7.5-2.5 1m-209.8 3.5c0 1.6.2 2.2.5 1.2.2-.9.2-2.3 0-3-.3-.6-.5.1-.5 1.8m248.9 2.1c0 1.1.3 1.4.6.6.3-.7.2-1.6-.1-1.9-.3-.4-.6.2-.5 1.3m29.2 6.9c0 3.3.2 4.5.4 2.7s.2-4.5 0-6-.4 0-.4 3.3m80.3-4.2c.3 1 .9 1.5 1.2 1.2s0-1.1-.7-1.8c-1-.9-1.1-.8-.5.6m-109.3 6.2c0 3.8.2 5.3.4 3.2.2-2 .2-5.2 0-7-.2-1.7-.4-.1-.4 3.8m-90.1 5.7.2 11.3.3-10.7.4-10.7 8.2-.4 8.2-.3-8.7-.2-8.8-.2zm-158.1-6.6c0 1.1.3 1.4.6.6.3-.7.2-1.6-.1-1.9-.3-.4-.6.2-.5 1.3m457.6-.9c-.3.5.5.8 1.8.8s2.1-.3 1.8-.8c-.2-.4-1-.7-1.8-.7s-1.6.3-1.8.7m-243.1 3.6c.3 1 .9 1.5 1.2 1.2s0-1.1-.7-1.8c-1-.9-1.1-.8-.5.6m252.9 2.7c1 1.1 2 2 2.3 2s-.3-.9-1.3-2-2-2-2.3-2 .3.9 1.3 2M428 532.5c0 .5 1 2.1 2.1 3.5 1.3 1.7 1.7 1.8 1 .5-1.7-3.3-3.1-5.1-3.1-4m29.4 10.5c0 6.3.1 8.9.3 5.7.2-3.1.2-8.3 0-11.5-.2-3.1-.3-.5-.3 5.8m40.8-8.3c5.9.2 15.8.2 22 0 6.2-.1 1.4-.3-10.7-.3s-17.2.2-11.3.3m38.1 0c2 .2 5.4.2 7.5 0 2-.2.3-.4-3.8-.4s-5.8.2-3.7.4m86.5 0c.7.3 1.6.2 1.9-.1.4-.3-.2-.6-1.3-.5-1.1 0-1.4.3-.6.6m-47.8.7c0 .2.8 1 1.8 1.7 1.5 1.3 1.6 1.2.3-.4s-2.1-2.1-2.1-1.3m-207.7 12.1c0 2.7.2 3.8.4 2.2.2-1.5.2-3.7 0-5-.2-1.2-.4 0-.4 2.8m186.9 1.5c0 1.9.2 2.7.5 1.7.2-.9.2-2.5 0-3.5-.3-.9-.5-.1-.5 1.8m-114 4c0 1.4.2 1.9.5 1.2.2-.6.2-1.8 0-2.5-.3-.6-.5-.1-.5 1.3m156.5 2.1c.7.7 1.5 1 1.8.7s-.2-.9-1.2-1.2c-1.4-.6-1.5-.5-.6.5m65.3.9c-.9.6-1 1-.3 1 .6 0 1.5-.5 1.8-1 .8-1.2.4-1.2-1.5 0m-322 1.4c0 .2.8 1 1.8 1.7 1.5 1.3 1.6 1.2.3-.4s-2.1-2.1-2.1-1.3m24.6 1.3c-.6 1.4-.5 1.5.5.6.7-.7 1-1.5.7-1.8s-.9.2-1.2 1.2m185.5.3c-1.3 1.1-1.9 2-1.4 2 .6 0 1.8-.9 2.8-2 2.3-2.5 1.7-2.5-1.4 0M356 561l-5.5.7 5.2.1c2.8.1 5.5-.3 5.8-.8.3-.6.5-.9.3-.8s-2.8.4-5.8.8m294.8-.3c.7.3 1.6.2 1.9-.1.4-.3-.2-.6-1.3-.5-1.1 0-1.4.3-.6.6m-230.5 1c2.6.2 6.7.2 9 0s.2-.3-4.8-.3c-4.9 0-6.8.1-4.2.3m68.4 0c10.5.2 28.1.2 39 0 10.9-.1 2.3-.2-19.2-.2-21.4 0-30.4.1-19.8.2m158.1 0c.7.3 1.6.2 1.9-.1.4-.3-.2-.6-1.3-.5-1.1 0-1.4.3-.6.6m-29 1c.6.2 1.8.2 2.5 0 .6-.3.1-.5-1.3-.5s-1.9.2-1.2.5m24 0c.6.2 1.8.2 2.5 0 .6-.3.1-.5-1.3-.5s-1.9.2-1.2.5m-18 1c.7.3 1.6.2 1.9-.1.4-.3-.2-.6-1.3-.5-1.1 0-1.4.3-.6.6m-336.2 39.6c.3 1 .9 1.5 1.2 1.2s0-1.1-.7-1.8c-1-.9-1.1-.8-.5.6m-57.6 3.6c0 .6.4 1.3 1 1.6s.7-.1.4-.9c-.7-1.8-1.4-2.1-1.4-.7m3 6.7c0 .6.7 1.9 1.6 3 1.4 1.8 1.4 1.8.3-.6-1.4-3.1-1.9-3.6-1.9-2.4m525.1 9.7c.2.1 1.5 1.1 2.9 2.2l2.5 2-1.9-2.3c-1.1-1.2-2.4-2.2-2.9-2.2q-.9 0-.6.3M302 627c1.2 1.6 2.4 3 2.6 3 .3 0-.4-1.4-1.6-3-1.2-1.7-2.4-3-2.6-3-.3 0 .4 1.3 1.6 3m410.4 3.2-1.9 2.3 2.3-1.9c1.2-1.1 2.2-2.1 2.2-2.3 0-.8-.8-.2-2.6 1.9M243 633.9c0 .6.4 1.3 1 1.6s.7-.1.4-.9c-.7-1.8-1.4-2.1-1.4-.7m71 9c0 .6.4 1.3 1 1.6s.7-.1.4-.9c-.7-1.8-1.4-2.1-1.4-.7m376.5 12.3-4 4.3 4.3-4c2.3-2.1 4.2-4 4.2-4.2 0-.8-.9 0-4.5 3.9m68.6-.9c-1.3 2.1-1.2 2.1.5.5 1-1 1.6-2 1.3-2.2-.3-.3-1.1.5-1.8 1.7M327.5 658c1 1.1 2 2 2.3 2s-.3-.9-1.3-2-2-2-2.3-2 .3.9 1.3 2M747 671.2c-1.5 2.1-1.7 2.8-.6 1.9 1.6-1.3 4.1-5.1 3.3-5.1-.2 0-1.4 1.5-2.7 3.2m-75.6 2-1.9 2.3 2.3-1.9c1.2-1.1 2.2-2.1 2.2-2.3 0-.8-.8-.2-2.6 1.9M357 684.4c0 .2.8 1 1.8 1.7 1.5 1.3 1.6 1.2.3-.4s-2.1-2.1-2.1-1.3m297.5 2.4c-3.4 3-2.5 2.7 1.9-.6 1.6-1.2 2.5-2.2 2-2.2s-2.3 1.3-3.9 2.8m79.5-.3c-.7.9-1.1 1.7-.9 2 .3.2 1-.5 1.7-1.5 1.4-2.4 1-2.6-.8-.5m-10.1 11.2-2.4 2.8 2.8-2.4c2.5-2.3 3.2-3.1 2.4-3.1-.2 0-1.4 1.2-2.8 2.7m-90.5 2.9c-1.8 1.4-1.8 1.5.4.4 1.2-.6 2.2-1.3 2.2-1.5 0-.8-.5-.6-2.6 1.1M388 705c.8.5 2 1 2.5 1 .6 0 .3-.5-.5-1s-1.9-1-2.5-1c-.5 0-.3.5.5 1m231 3c-.8.5-1 1-.5 1 .6 0 1.7-.5 2.5-1s1.1-1 .5-1c-.5 0-1.7.5-2.5 1m92.9.7c-1.3 1.6-1.2 1.7.4.4.9-.7 1.7-1.5 1.7-1.7 0-.8-.8-.3-2.1 1.3M402 711.4c0 .3.9 1 2 1.6s2 .8 2 .6c0-.3-.9-1-2-1.6s-2-.8-2-.6m-91 5c0 .2.7.7 1.6 1 .8.3 1.2.2.9-.4-.6-1-2.5-1.4-2.5-.6m379.9 10.3c-1.3 1.6-1.2 1.7.4.4s2.1-2.1 1.3-2.1c-.2 0-1 .8-1.7 1.7m-239.1 2c.7.3 1.6.2 1.9-.1.4-.3-.2-.6-1.3-.5-1.1 0-1.4.3-.6.6m33.5 5c.9.2 2.5.2 3.5 0 .9-.3.1-.5-1.8-.5s-2.7.2-1.7.5m11.5 0c.6.2 1.8.2 2.5 0 .6-.3.1-.5-1.3-.5s-1.9.2-1.2.5m24 0c.6.2 1.8.2 2.5 0 .6-.3.1-.5-1.3-.5s-1.9.2-1.2.5m6 0c.6.2 1.8.2 2.5 0 .6-.3.1-.5-1.3-.5s-1.9.2-1.2.5M667 743c-.9.6-1 1-.3 1 .6 0 1.5-.5 1.8-1 .8-1.2.4-1.2-1.5 0m-5 3c-.9.6-1 1-.3 1 .6 0 1.5-.5 1.8-1 .8-1.2.4-1.2-1.5 0m-14 8c-.9.6-1 1-.3 1 .6 0 1.5-.5 1.8-1 .8-1.2.4-1.2-1.5 0m-267.3 7.1c.7.7 1.5 1 1.8.7s-.2-.9-1.2-1.2c-1.4-.6-1.5-.5-.6.5m232.8 8.9c-.3.6.1.7.9.4 1.8-.7 2.1-1.4.7-1.4-.6 0-1.3.4-1.6 1m-5.5 2c-.9.6-1 1-.3 1 .6 0 1.5-.5 1.8-1 .8-1.2.4-1.2-1.5 0m-15.4 4.9c-.4.5.3.7 1.4.4 2.3-.6 2.6-1.3.6-1.3-.8 0-1.7.4-2 .9m-145.8 6.8c.7.3 1.6.2 1.9-.1.4-.3-.2-.6-1.3-.5-1.1 0-1.4.3-.6.6m115 1c.7.3 1.6.2 1.9-.1.4-.3-.2-.6-1.3-.5-1.1 0-1.4.3-.6.6m-88 3c.7.3 1.6.2 1.9-.1.4-.3-.2-.6-1.3-.5-1.1 0-1.4.3-.6.6m7.5 1c.9.2 2.5.2 3.5 0 .9-.3.1-.5-1.8-.5s-2.7.2-1.7.5m24 1c1.5.2 3.9.2 5.5 0 1.5-.2.2-.4-2.8-.4s-4.3.2-2.7.4"/><path fill="#aad4d4" d="M367.1 466.6c0 1.1.3 1.4.6.6.3-.7.2-1.6-.1-1.9-.3-.4-.6.2-.5 1.3"/><path fill="#d4d4d4" d="M506.3 193.7c1.5.2 3.9.2 5.5 0 1.5-.2.2-.4-2.8-.4s-4.3.2-2.7.4m17.5 50c.6.2 1.8.2 2.5 0 .6-.3.1-.5-1.3-.5s-1.9.2-1.2.5M723 288.4c0 .2.8 1 1.8 1.7 1.5 1.3 1.6 1.2.3-.4s-2.1-2.1-2.1-1.3m6.8 86.3c.7.3 1.6.2 1.9-.1.4-.3-.2-.6-1.3-.5-1.1 0-1.4.3-.6.6M543.5 430c-.4.6.3 1 1.4 1 2.5 0 2.7-.6.6-1.3-.8-.4-1.7-.2-2 .3m-196.7.7c.7.3 1.6.2 1.9-.1.4-.3-.2-.6-1.3-.5-1.1 0-1.4.3-.6.6m6 0c.6.2 1.8.2 2.5 0 .6-.3.1-.5-1.3-.5s-1.9.2-1.2.5m8 0c.7.3 1.6.2 1.9-.1.4-.3-.2-.6-1.3-.5-1.1 0-1.4.3-.6.6m10 0c1.2.2 3.2.2 4.5 0 1.2-.2.2-.4-2.3-.4s-3.5.2-2.2.4m9.5 0c1.5.2 3.7.2 5 0 1.2-.2 0-.4-2.8-.4-2.7 0-3.8.2-2.2.4m16.5 0c.7.3 1.6.2 1.9-.1.4-.3-.2-.6-1.3-.5-1.1 0-1.4.3-.6.6m80 0c7.9.2 20.5.2 28 0 7.5-.1 1.1-.3-14.3-.3s-21.6.2-13.7.3m44.5 0c.9.2 2.5.2 3.5 0 .9-.3.1-.5-1.8-.5s-2.7.2-1.7.5m7.5 0c.7.3 1.6.2 1.9-.1.4-.3-.2-.6-1.3-.5-1.1 0-1.4.3-.6.6m24.4 15.3c0 1.4.2 1.9.5 1.2.2-.6.2-1.8 0-2.5-.3-.6-.5-.1-.5 1.3m-163.4 9.7c.6.2 1.8.2 2.5 0 .6-.3.1-.5-1.3-.5s-1.9.2-1.2.5m-22.6 3.3c0 1.4.2 1.9.5 1.2.2-.6.2-1.8 0-2.5-.3-.6-.5-.1-.5 1.3m-159.1 7.6c0 1.1.3 1.4.6.6.3-.7.2-1.6-.1-1.9-.3-.4-.6.2-.5 1.3m159.3 14.9c0 4.9.1 7.1.3 4.8s.2-6.4 0-9-.3-.8-.3 4.2m176.8 13c0 1.6.2 2.2.5 1.2.2-.9.2-2.3 0-3-.3-.6-.5.1-.5 1.8m-336.1 15.1c0 1.1.3 1.4.6.6.3-.7.2-1.6-.1-1.9-.3-.4-.6.2-.5 1.3M603 524.5c1.3 1.4 2.6 2.5 2.8 2.5.3 0-.5-1.1-1.8-2.5s-2.6-2.5-2.8-2.5c-.3 0 .5 1.1 1.8 2.5m120.4 92.7-1.9 2.3 2.3-1.9c1.2-1.1 2.2-2.1 2.2-2.3 0-.8-.8-.2-2.6 1.9M332 663.4c0 .2.8 1 1.8 1.7 1.5 1.3 1.6 1.2.3-.4s-2.1-2.1-2.1-1.3m342.4 7.8-1.9 2.3 2.3-1.9c2.1-1.8 2.7-2.6 1.9-2.6-.2 0-1.2 1-2.3 2.2M344 674.4c0 .2.8 1 1.8 1.7 1.5 1.3 1.6 1.2.3-.4s-2.1-2.1-2.1-1.3m323.9 2.3c-1.3 1.6-1.2 1.7.4.4.9-.7 1.7-1.5 1.7-1.7 0-.8-.8-.3-2.1 1.3m47 29c-1.3 1.6-1.2 1.7.4.4s2.1-2.1 1.3-2.1c-.2 0-1 .8-1.7 1.7m-233.1 28c.7.3 1.6.2 1.9-.1.4-.3-.2-.6-1.3-.5-1.1 0-1.4.3-.6.6m24.5 1c1.5.2 3.9.2 5.5 0 1.5-.2.2-.4-2.8-.4s-4.3.2-2.7.4m52.5 50c.7.3 1.6.2 1.9-.1.4-.3-.2-.6-1.3-.5-1.1 0-1.4.3-.6.6m-30 4c.7.3 1.6.2 1.9-.1.4-.3-.2-.6-1.3-.5-1.1 0-1.4.3-.6.6"/><g fill="#fff" stroke-width="0"><path d="M469 195.6c-86.7 11.1-162.9 57.1-211 127.6-26.8 39.2-43.5 85.5-48.6 134.8-2 19.4-1.5 53.8 1.1 71 8.1 55.7 24.2 95.9 54.4 136.5 9.9 13.2 25.3 30.8 33.2 37.9 28.9 26 49.6 40.4 78.4 54.6 41.2 20.2 78.4 29.5 123.5 30.7 73.2 2 143.9-22.9 201.6-71 25.7-21.4 52.8-52.9 63.3-73.4 4.2-8.3 2-14.7-7.1-20.7-6.6-4.3-24.4-10.6-28.1-9.9-3 .6-6.5 4.3-22 23-35.9 43.4-77.7 72.4-124.7 86.6-26.1 7.9-46.7 10.9-76 10.9-36 0-62.6-4.9-93-17-57.8-23-106.5-69.5-132.7-126.7-9.7-21.2-17.6-50.3-20.3-75.2-1.2-11.1-.9-52.5.5-60.3 6.2-35 13.1-56.3 26.5-81.7 9.4-17.6 15.4-26.6 28.6-42.3 8.2-9.7 22.7-23.9 32.9-32.1 26.5-21.4 64.1-40 98.7-48.8 20.4-5.2 32.1-6.5 58.3-6.6 23 0 26.3.2 40.5 2.8 25.2 4.4 42.5 10 65.6 21.1 22.9 11 37.9 20.9 55.3 36.5 19 17 31.3 31.2 43.3 50 4 6.3 9.2 13.4 11.4 15.8 3.5 3.7 4.7 4.3 8.1 4.3 2.2 0 5.9-.7 8.2-1.5 7.3-2.6 21-9.7 23.3-12.2 5.3-5.7 1.9-15.9-12.4-37.9-23.4-35.9-59.2-68.5-100.4-91.3-34.8-19.3-68.2-30.2-106.8-35.1-19-2.4-56.6-2.6-73.6-.4"/><path d="M613.7 430.1c-30.3 7.4-49.7 32.5-49.7 64.1 0 31.3 19.1 57.9 47 65.8 15.4 4.3 31.8 3.6 46.5-2.2 11-4.3 26.5-16.5 26.5-20.9 0-1.6-13.5-13.9-15.3-13.9-.6 0-5 2.2-9.7 4.9-10.9 6.3-19 8.5-29 7.8-18.2-1.2-30.9-11-36-27.5-6.4-20.6 2.6-42.5 20.8-51 5.1-2.4 6.8-2.7 16.7-2.6 12 .1 17.2 1.7 26.9 8.3 2.5 1.7 5.4 3.1 6.6 3.1 2.7 0 16-12.6 16-15.1 0-4.7-22.7-18-36.2-21.3-8.8-2.1-21.4-1.9-31.1.5m-267.8 1.1c-1.8.3-4.1 1.7-5.1 3-1.6 2.2-1.8 6.1-1.8 61.6v59.4l2.9 2.9c2.7 2.7 3.5 2.9 10.5 2.9 8.5 0 11.9-1.2 13.5-4.7.7-1.4 1.1-9.2 1.1-19.8V519h9.8c5.3 0 10.2.4 10.7.8.6.4 5.9 8.8 11.8 18.7 6 9.9 11.9 19 13.3 20.2 2.2 2.1 3.6 2.3 12.3 2.3 11.1 0 13.7-1.2 14.6-6.5.6-3.4.9-2.8-13.9-25.1-5.4-8.2-10.1-15.6-10.3-16.4-.2-.9 1.5-2.6 4.8-4.5 10.3-6.1 16.7-15.7 19-28.6 3.9-22-10.6-43.4-32.6-47.9-6.4-1.3-55-2-60.6-.8m56.4 26.7c13.1 6.4 13.1 25.8 0 32.3-4.4 2.1-6.1 2.3-19.8 2.3h-15l-.3-17.5c-.1-9.6 0-18.1.3-18.8.4-1.2 3.2-1.4 15.3-1 12.8.3 15.3.7 19.5 2.7m88.5-27.1-28.7.2-2 2.7c-2.1 2.5-2.1 3.5-2.1 62.5v59.9l2.5 2.5 2.5 2.5 43.1-.3 43.1-.3 1.8-2.3c3.7-4.5 3.7-15.9 0-20.4-1.8-2.3-2-2.3-33.4-2.6l-31.6-.3V507h53.1l2.4-2.5c2.2-2.1 2.5-3.3 2.5-9.8 0-6.4-.3-7.6-2.3-9.5-2.2-2.1-3.2-2.2-28.7-2.4l-26.5-.3v-26.6l29.7.1c34 .1 35.1-.1 36.5-6.8 1.5-7.5.9-13.1-1.9-15.9-2.5-2.5-2.9-2.6-17-2.7-7.8 0-27.2 0-43 .2"/></g><path fill="#8080aa" d="M260.1 481.6c0 1.1.3 1.4.6.6.3-.7.2-1.6-.1-1.9-.3-.4-.6.2-.5 1.3m0 18c0 1.1.3 1.4.6.6.3-.7.2-1.6-.1-1.9-.3-.4-.6.2-.5 1.3"/><path fill="#d40000" d="M772.8 435.7c.6.2 1.8.2 2.5 0 .6-.3.1-.5-1.3-.5s-1.9.2-1.2.5m15.5 0c.9.2 2.3.2 3 0 .6-.3-.1-.5-1.8-.5-1.6 0-2.2.2-1.2.5m11.4 2.4c.7.7 1.5 1 1.8.7s-.2-.9-1.2-1.2c-1.4-.6-1.5-.5-.6.5m-40.2.9c-1.6.7-1.7.9-.3.9.9.1 2-.4 2.3-.9.7-1.1.7-1.1-2 0m-15.6 9.7c-1.3 1.6-1.2 1.7.4.4s2.1-2.1 1.3-2.1c-.2 0-1 .8-1.7 1.7m79.1 3.8c1.9 1.9 3.6 3.5 3.9 3.5s-1-1.6-2.9-3.5-3.6-3.5-3.9-3.5 1 1.6 2.9 3.5m-86.6 3.7-1.9 2.3 2.3-1.9c2.1-1.8 2.7-2.6 1.9-2.6-.2 0-1.2 1-2.3 2.2m96.2 9.1c.3 1 .9 1.5 1.2 1.2s0-1.1-.7-1.8c-1-.9-1.1-.8-.5.6m2.5 4.7c1.4 3.1 1.9 3.6 1.9 2.4 0-.6-.7-1.9-1.6-3-1.4-1.8-1.4-1.8-.3.6m4 12.6c0 1.1.3 1.4.6.6.3-.7.2-1.6-.1-1.9-.3-.4-.6.2-.5 1.3m-116 5c0 1.1.3 1.4.6.6.3-.7.2-1.6-.1-1.9-.3-.4-.6.2-.5 1.3m117.2 7.9c0 4.4.2 6.1.4 3.7.2-2.3.2-5.9 0-8-.2-2-.4-.1-.4 4.3m-117.1 6c0 1.6.2 2.2.5 1.2.2-.9.2-2.3 0-3-.3-.6-.5.1-.5 1.8m.9 6.1c0 1.1.3 1.4.6.6.3-.7.2-1.6-.1-1.9-.3-.4-.6.2-.5 1.3m112.5 6.9c-.9 2.6-.7 3.2.5 1.2.6-1 .9-2.1.6-2.3-.2-.3-.7.2-1.1 1.1m-2.5 6.2c-1 2.6-1 2.7.4.9.8-1.1 1.5-2.3 1.5-2.8 0-1.5-.7-.8-1.9 1.9m-11.6 15.5-6 6.3 6.3-6c5.8-5.5 6.7-6.5 5.9-6.5-.1 0-2.9 2.8-6.2 6.2m-87.5-4.9c0 .2 1.5 1.6 3.3 3.3l3.2 2.9-2.9-3.3c-2.8-3-3.6-3.7-3.6-2.9m75.4 14.3c-1.8 1.4-1.8 1.5.4.4 1.2-.6 2.2-1.3 2.2-1.5 0-.8-.5-.6-2.6 1.1m-45.6 6.1c.7.3 1.6.2 1.9-.1.4-.3-.2-.6-1.3-.5-1.1 0-1.4.3-.6.6m18.5 2c.9.2 2.5.2 3.5 0 .9-.3.1-.5-1.8-.5s-2.7.2-1.7.5"/><path fill="red" d="M773.5 435.7c-4 .4-10.8 2.4-11.9 3.5-.6.4-1.8.8-2.9.8-1 0-4.6 1.9-8 4.2-20.2 13.7-29.8 35-26.7 59 1.2 8.7 4.8 18.4 9.4 24.9 2.4 3.5 11.2 12.4 14.6 14.9 3.9 2.9 14.9 8 17.2 8 .8 0 1.9.5 2.6 1.2 2 2 21.7 1.3 29.7-1.2 19.8-6.1 35.8-22.6 41-42 1.9-7.2 1.9-21.7-.1-29.3-2.2-8.6-7.8-19.1-13.2-25-4.5-4.8-18.3-14.7-20.6-14.7-.6 0-2.3-.6-3.8-1.4-5-2.6-18.2-4-27.3-2.9"/></svg>